<svg xmlns="http://www.w3.org/2000/svg" width="219" height="146" viewBox="0 0 219 146">
  <defs>
    <style>
      .cls-1 {
        fill: #fed100;
        stroke: #666;
        stroke-width: 22.38px;
        stroke-dasharray: 2.238 15.666 2.238 15.666;
      }

      .cls-1, .cls-2 {
        fill-rule: evenodd;
      }

      .cls-2 {
        fill: #666;
      }
    </style>
  </defs>
  <g id="Artboard_1" data-name="Artboard 1">
    <path class="cls-1" d="M3314,185h195V310H3314V185Z" transform="translate(-3301 -176)"/>
    <path id="Two_Trees" data-name="Two  Trees" class="cls-2" d="M3359.72,240.812h11.27V213.478h15.39v-8.469h-42v8.469h15.34v27.334Zm45.65,0,6.33-17.132,6.32,17.132h11.32l9.97-25.89h-9.97l-5.71,16.554-5.99-16.554h-11.22l-5.8,16.554-5.9-16.554H3383.6l10.69,25.89h11.08Zm51.82,0.722h3.36c15.97,0,18.46-7.411,18.46-13.378V227.29c0-5.871-2.78-13.09-18.46-13.09h-3.4c-14.96,0-18.51,7.122-18.51,13.09v0.866C3438.64,234.171,3442.23,241.534,3457.19,241.534Zm1.68-6.978c-7.29,0-9.3-3.657-9.3-6.689v-0.24c0-3.273,1.97-6.545,9.3-6.545h0.05c7.19,0,9.25,3.32,9.25,6.545v0.24C3468.17,230.9,3466.21,234.556,3458.87,234.556ZM3354.55,280.51h7.75V261.717h10.58v-5.823H3344v5.823h10.55V280.51Zm26.31-9.2c0-2.316,1.35-4.3,3.82-4.3h0.03c2.77,0,3.76,1.952,3.76,4.268h7.09v-1.026c0-4.566-2.08-7.94-7.22-7.94h-0.36a8.262,8.262,0,0,0-7.19,3.54V262.71h-7.28v17.8h7.35v-9.2Zm29.1-4.963H3410c3.69,0,5.47,1.125,5.93,3.011h-11.87C3404.62,267.474,3406.27,266.349,3409.96,266.349Zm13.29,7.908v-0.033H3416c-0.1.463-.89,2.283-5.77,2.283h-0.04c-4.05,0-5.83-1.39-6.26-3.474h19.42v-1.225c0-4.334-1.95-9.595-12.33-9.595h-2.01c-9.6,0-12.3,4.4-12.3,8.967v0.728c0,4.665,3.03,9.1,12.49,9.1h1.88C3421.67,281.006,3423.25,276.672,3423.25,274.257Zm14.57-7.908h0.03c3.69,0,5.47,1.125,5.93,3.011h-11.87C3432.47,267.474,3434.12,266.349,3437.82,266.349Zm13.28,7.908v-0.033h-7.25c-0.1.463-.89,2.283-5.77,2.283h-0.03c-4.06,0-5.84-1.39-6.27-3.474h19.42v-1.225c0-4.334-1.95-9.595-12.33-9.595h-2.01c-9.59,0-12.3,4.4-12.3,8.967v0.728c0,4.665,3.04,9.1,12.5,9.1h1.88C3449.52,281.006,3451.1,276.672,3451.1,274.257Zm12.56,6.749h1.35c9.79,0,11.7-2.845,11.7-6.121v-0.2c0-3.54-1.68-5.426-9.89-5.592l-3.16-.066c-3.1-.066-3.73-0.628-3.73-1.423V267.54c0-.86.69-1.323,4.22-1.323h0.03c3.93,0,4.32,1.158,4.39,1.82h7.48v-0.232c0-2.779-2.11-5.592-11.11-5.592h-1.32c-9.72,0-11.21,2.846-11.21,5.559v0.2c0,2.614,1.85,5.36,9.57,5.559l3.16,0.066c3.46,0.066,3.89.662,3.89,1.555v0.066c0,0.861-.49,1.688-4.58,1.688h-0.07c-4.32,0-4.51-1.787-4.55-2.416h-7.58v0.2C3452.25,276.97,3453.3,281.006,3463.66,281.006Z" transform="translate(-3301 -176)"/>
  </g>
</svg>
