<svg xmlns="http://www.w3.org/2000/svg" width="135.16" height="75.813" viewBox="0 0 135.16 75.813">
  <defs>
    <style>
      .cls-1 {
        fill: #666;
        fill-rule: evenodd;
      }
    </style>
  </defs>
  <path id="Two_Trees" data-name="Two  Trees" class="cls-1" d="M2741.37,144.286h11.28V117.02h15.41v-8.449H2726v8.449h15.37v27.266Zm45.69,0,6.34-17.089,6.34,17.089h11.32l9.99-25.826h-9.99l-5.71,16.514-6-16.514h-11.23l-5.81,16.514-5.9-16.514h-11.14l10.7,25.826h11.09Zm51.89,0.72h3.36c15.99,0,18.48-7.392,18.48-13.345V130.8c0-5.856-2.78-13.057-18.48-13.057h-3.41c-14.98,0-18.53,7.105-18.53,13.057v0.864C2820.37,137.662,2823.97,145.006,2838.95,145.006Zm1.68-6.96c-7.3,0-9.31-3.649-9.31-6.673v-0.24c0-3.264,1.97-6.528,9.31-6.528h0.05c7.2,0,9.26,3.312,9.26,6.528v0.24C2849.94,134.4,2847.97,138.046,2840.63,138.046Zm-104.44,45.84h7.76V165.14h10.59v-5.809h-28.91v5.809h10.56v18.746Zm26.33-9.175c0-2.31,1.36-4.291,3.83-4.291h0.04c2.77,0,3.76,1.948,3.76,4.258h7.09v-1.023c0-4.555-2.07-7.921-7.22-7.921h-0.37a8.268,8.268,0,0,0-7.19,3.531V166.13h-7.3v17.756h7.36v-9.175Zm29.14-4.951h0.04c3.69,0,5.48,1.122,5.94,3h-11.88C2786.32,170.882,2787.97,169.76,2791.66,169.76Zm13.3,7.888v-0.033h-7.26c-0.1.463-.89,2.278-5.77,2.278h-0.03c-4.06,0-5.85-1.386-6.28-3.466h19.44v-1.221c0-4.324-1.94-9.571-12.34-9.571h-2.01c-9.61,0-12.31,4.389-12.31,8.944v0.726c0,4.654,3.03,9.076,12.5,9.076h1.89C2803.38,184.381,2804.96,180.058,2804.96,177.648Zm14.59-7.888h0.03c3.7,0,5.48,1.122,5.94,3h-11.88C2814.2,170.882,2815.85,169.76,2819.55,169.76Zm13.3,7.888v-0.033h-7.26c-0.1.463-.89,2.278-5.78,2.278h-0.03c-4.06,0-5.84-1.386-6.27-3.466h19.44v-1.221c0-4.324-1.95-9.571-12.35-9.571h-2.01c-9.6,0-12.31,4.389-12.31,8.944v0.726c0,4.654,3.04,9.076,12.51,9.076h1.88C2831.27,184.381,2832.85,180.058,2832.85,177.648Zm12.57,6.733h1.35c9.81,0,11.72-2.838,11.72-6.1v-0.2c0-3.532-1.68-5.413-9.9-5.578l-3.17-.066c-3.1-.066-3.73-0.627-3.73-1.42v-0.066c0-.858.69-1.32,4.22-1.32h0.04c3.93,0,4.32,1.155,4.39,1.816h7.49v-0.231c0-2.773-2.11-5.578-11.12-5.578h-1.32c-9.74,0-11.22,2.838-11.22,5.545v0.2c0,2.607,1.84,5.346,9.57,5.544l3.17,0.066c3.46,0.066,3.89.66,3.89,1.552v0.066c0,0.858-.5,1.683-4.59,1.683h-0.06c-4.33,0-4.53-1.782-4.56-2.41H2834v0.2C2834,180.355,2835.06,184.381,2845.42,184.381Z" transform="translate(-2725.62 -108.562)"/>
</svg>
